<?xml version="1.0" encoding="utf-8"?>
<!-- Generator: Adobe Illustrator 26.3.1, SVG Export Plug-In . SVG Version: 6.00 Build 0)  -->
<svg version="1.1" xmlns="http://www.w3.org/2000/svg" xmlns:xlink="http://www.w3.org/1999/xlink" x="0px" y="0px"
	 viewBox="0 0 1408.81 496.16" style="enable-background:new 0 0 1408.81 496.16;" xml:space="preserve">
<style type="text/css">
	.st0{fill:#DA2B1F;}
	.st1{fill:#FFFFFF;}
	.st2{fill:#002858;}
</style>
<g id="Background_color">
</g>
<g id="Layer_1">
	<g>
		<path class="st0" d="M1227.65,254.56c-166.35,166.51-458.83,123.77-705.5,43.85c-226.06-73.23-342.05,21.98-342.05,21.98
			l-1.09-76.52c0,0,103.72-66.69,296.23-9.23c179.98,53.72,523.06,145.45,717.89-120.12L1227.65,254.56z"/>
		<path class="st1" d="M156.17,233.46c3.02-0.93,6.03-1.81,9.05-2.65c6.03-1.68,12.03-3.29,18.06-4.79
			c12.05-2.99,24.15-5.57,36.29-7.78c24.3-4.36,48.75-7.52,73.28-9.12c24.53-1.67,49.13-1.87,73.62-0.45
			c24.49,1.32,48.88,4.37,72.89,9.15c24.02,4.7,47.68,11.2,70.62,19.58c11.53,4.26,22.58,8.73,33.9,12.83
			c5.66,2.03,11.32,4.05,17.01,5.97c5.7,1.9,11.41,3.78,17.14,5.58c22.92,7.2,46.09,13.48,69.26,19.62
			c5.79,1.52,11.59,3.05,17.41,4.48c5.8,1.51,11.62,2.91,17.45,4.31c11.65,2.79,23.37,5.3,35.11,7.63
			c46.98,9.26,94.76,14.78,142.63,14.85c5.98,0.06,11.96-0.11,17.94-0.2c5.98-0.24,11.96-0.39,17.92-0.79
			c5.97-0.29,11.93-0.82,17.89-1.28c5.95-0.61,11.91-1.12,17.84-1.91c11.88-1.38,23.7-3.23,35.46-5.45
			c11.77-2.15,23.42-4.89,35.01-7.89c11.59-2.99,23.01-6.59,34.36-10.39c11.3-3.94,22.49-8.22,33.5-12.95
			c22-9.49,43.3-20.62,63.71-33.25c40.88-25.2,77.85-56.63,110.65-91.87l0.96,0.87c-32.04,36.07-68.45,68.54-109.12,94.93
			c-40.62,26.4-85.34,46.65-132.11,59.79c-11.7,3.26-23.48,6.25-35.39,8.66c-11.89,2.47-23.87,4.58-35.91,6.19
			c-6.01,0.89-12.06,1.49-18.09,2.2c-6.05,0.55-12.09,1.18-18.16,1.56c-6.06,0.49-12.12,0.74-18.19,1.06
			c-6.07,0.18-12.14,0.44-18.22,0.46c-48.6,0.62-97.15-4.29-144.88-12.99c-23.86-4.39-47.59-9.56-71.01-15.83
			c-23.41-6.31-46.45-13.9-69.31-21.81l-34.27-11.92l-17.14-5.94c-5.74-2.03-11.33-3.93-17.02-5.72
			c-22.7-7.17-45.95-12.48-69.43-16.01c-23.5-3.44-47.23-5.13-70.93-5.18c-23.71,0.01-47.38,1.64-70.84,4.72
			c-23.44,3.19-46.69,7.67-69.46,13.79c-11.39,3.03-22.67,6.38-33.78,10.1c-5.55,1.87-11.07,3.79-16.49,5.9
			c-2.71,1.04-5.4,2.11-8.06,3.21l-3.94,1.66l-1.92,0.84c-0.58,0.26-1.32,0.59-1.71,0.78L156.17,233.46z"/>
		<path class="st2" d="M162.81,174.41c1.08-0.24,1.73-0.34,2.55-0.49l2.3-0.39l4.49-0.67c2.97-0.43,5.9-0.84,8.83-1.19
			c5.86-0.72,11.68-1.26,17.5-1.69c11.63-0.92,23.2-1.52,34.77-1.63c5.78-0.07,11.55,0.01,17.32,0.1
			c5.76,0.04,11.52,0.22,17.27,0.46c11.5,0.49,22.96,1.39,34.38,2.63c45.66,4.84,90.6,14.81,133.85,29.72
			c10.81,3.73,21.54,7.68,32.13,12.02c10.59,4.32,21.03,8.99,31.41,13.81l30.53,14.47c10.15,4.79,20.39,9.39,30.6,14.01
			c40.85,18.44,82.34,35.17,124.55,48.81c21.09,6.83,42.46,12.57,63.86,17.59c10.7,2.53,21.51,4.5,32.29,6.41
			c10.79,1.87,21.57,3.53,32.39,4.8c43.29,4.92,86.67,5.27,129.12-0.16c42.44-5.29,83.88-15.57,123.54-30.6
			c9.91-3.77,19.72-7.82,29.42-12.04c9.66-4.44,19.28-8.78,28.71-13.73c9.46-4.75,18.76-9.95,27.95-15.27
			c9.12-5.53,18.23-10.99,27.06-17.05l32.81,88.15l-16.35,5.18c-5.48,1.63-10.93,3.35-16.44,4.9c-5.48,1.61-10.94,3.29-16.46,4.8
			l-8.25,2.32l-8.29,2.19c-11.06,2.88-22.13,5.71-33.26,8.31c-11.15,2.51-22.33,4.93-33.58,6.98c-11.21,2.25-22.49,4.14-33.79,5.9
			c-11.32,1.65-22.66,3.17-34.05,4.3c-22.75,2.4-45.62,4-68.54,4.22c-11.46,0.2-22.92-0.07-34.37-0.45
			c-11.46-0.28-22.9-1-34.33-1.89c-22.86-1.86-45.63-4.89-68.18-9.04c-22.6-3.92-45.01-8.9-67.16-14.81
			c-11.07-2.96-22.09-6.12-33.02-9.51c-10.94-3.38-21.78-7.03-32.65-10.61c-21.68-7.29-43.11-15.24-64.29-23.69
			c-10.59-4.22-21.13-8.53-31.61-12.96l-31.43-13.19c-10.44-4.44-20.84-8.94-31.22-13.46l-30.84-13.51
			c-9.86-4.32-19.91-8.17-30.02-11.74c-10.12-3.57-20.32-6.82-30.59-9.75c-20.54-5.85-41.35-10.48-62.34-13.39
			c-20.97-2.97-42.02-4.77-62.99-4.85c-10.48-0.03-20.93,0.26-31.32,0.93c-5.19,0.33-10.37,0.73-15.52,1.24
			c-5.15,0.53-10.28,1.19-15.38,1.91c-10.18,1.49-20.26,3.26-30.04,5.54c-4.88,1.17-9.7,2.43-14.34,3.8
			c-2.32,0.68-4.6,1.39-6.77,2.11l-3.13,1.09l-1.39,0.53l-0.59,0.25l-0.21,0.1c-0.05,0.02-0.02,0.02-0.03,0.03
			c-0.03,0.02-0.02,0.02,0.2-0.03L162.81,174.41z"/>
		<path class="st1" d="M158,193.99c5.71-2.1,11.37-3.68,17.14-5.16c5.75-1.45,11.55-2.7,17.37-3.79
			c11.64-2.18,23.39-3.69,35.18-4.68c23.58-1.95,47.3-1.74,70.83,0.3c47.1,3.99,93.44,15.18,137.57,31.91
			c22.09,8.33,43.59,18.14,64.64,28.82c20.98,10.68,42.16,20.97,63.61,30.64c42.88,19.39,86.86,36.39,131.9,49.89
			c90.09,26.79,184.8,38.43,278.31,31.15c46.71-3.66,93.05-11.45,138.37-23.06c22.64-5.88,45.04-12.68,67.14-20.3
			c22.11-7.6,43.95-15.97,65.49-25.03l7.09,17.82l-16.89,5.76c-5.66,1.82-11.28,3.75-16.97,5.48c-5.66,1.81-11.3,3.68-16.99,5.38
			l-8.51,2.61l-8.56,2.48c-22.81,6.62-45.85,12.38-69.07,17.2c-11.58,2.55-23.22,4.78-34.87,6.9c-11.68,1.98-23.37,3.91-35.11,5.41
			c-23.46,3.2-47.03,5.47-70.65,6.68c-11.81,0.58-23.63,0.89-35.45,0.97c-11.82,0.08-23.64,0-35.45-0.44
			c-23.62-0.85-47.18-2.79-70.6-5.82c-11.71-1.54-23.41-3.12-35.05-5.12c-11.64-1.98-23.24-4.18-34.79-6.65
			c-11.54-2.49-23.03-5.21-34.46-8.15c-11.44-2.94-22.77-6.23-34.11-9.53c-22.65-6.67-45.04-14.22-67.15-22.52
			c-22.13-8.27-43.91-17.41-65.58-26.8c-21.65-9.45-43.02-19.53-64.2-29.99c-20.95-10.46-42.55-19.49-64.53-27.31
			c-43.93-15.65-89.9-25.37-136.01-27.72c-23.05-1.02-46.11-0.23-68.76,2.61c-11.32,1.45-22.55,3.35-33.53,5.96
			c-5.48,1.34-10.9,2.83-16.21,4.48c-2.65,0.83-5.27,1.7-7.84,2.62c-1.28,0.46-2.55,0.93-3.77,1.41l-1.8,0.72l-0.85,0.36
			c-0.24,0.1-0.6,0.26-0.62,0.29L158,193.99z"/>
	</g>
</g>
</svg>
